<?xml version="1.0" encoding="utf-8"?>
<!-- Generator: Adobe Illustrator 16.0.0, SVG Export Plug-In . SVG Version: 6.00 Build 0)  -->
<!DOCTYPE svg PUBLIC "-//W3C//DTD SVG 1.1//EN" "http://www.w3.org/Graphics/SVG/1.1/DTD/svg11.dtd">
<svg version="1.1" xmlns="http://www.w3.org/2000/svg" xmlns:xlink="http://www.w3.org/1999/xlink" x="0px" y="0px" width="500px"
	 height="500px" viewBox="0 0 500 500" enable-background="new 0 0 500 500" xml:space="preserve">
<g id="Layer_1">
</g>
<g id="Layer_2">
	<g>
		<path d="M471.333,118.556l-58.415-58.413h-90.216l-77.399,62.951l-72.312-63.015L68.034,68.56l-56.292,67.976v96.348
			l54.667,68.333l2.594,2.462c0.038,0.037,0.066,0.079,0.107,0.11c0.005,0.006,0.008,0.01,0.013,0.015l0.056,0.043l78.747,74.734
			l97.319,90.972l201.58-184.78l0.006-0.011c0.021-0.019,0.034-0.046,0.054-0.066c0.149-0.146,0.27-0.324,0.369-0.52
			c0.019-0.036,0.052-0.061,0.068-0.097c0.003-0.006,0.003-0.01,0.004-0.017c0.004-0.008,0.008-0.012,0.011-0.017l0.177-0.416
			l40.746-67.749L471.333,118.556z M458.807,256.861l12.506-29.632c0.047-0.108,0.042-0.227,0.069-0.34l8.99-5.969L458.807,256.861z
			 M349.045,368.747l26.694-46.021l56.151-29.923L349.045,368.747z M268.055,442.988l48.056-56.817l17.499-3.278L268.055,442.988z
			 M150.785,375.544l-49.516-46.977l59.538,45.867l51.932,47.083l20.917,31.494L150.785,375.544z M15.911,144.482l27.708,43.795
			l-27.708,37.539V144.482z M163.939,64.994c-14.24,8.879-31.944,19.685-35.388,21.13c-4.571-1.395-32.465-9.698-48.191-14.376
			L163.939,64.994z M407.521,64.312l-5.69,6.64l-48.059-6.64H407.521z M163.262,368.033l-42.438-190.468l159.39,35.588
			L163.262,368.033z M282.604,216.907l28.942,165.243l-145.375-11.053L282.604,216.907z M287.478,220.562l83.777,100.589
			l-55.855,58.843L287.478,220.562z M402.086,77.061l63.633,146.573l-178.085-13.042L402.086,77.061z M467.307,216.817
			L407.509,79.075l59.798,41.579V216.817z M288.179,203.546l36.809-139.001l73.616,10.171L288.179,203.546z M125.257,174.283
			l118.906-45.808l36.062,80.407L125.257,174.283z M120.558,171.625l9.708-80.577l108.73,34.95L120.558,171.625z M116.874,167.359
			L72.945,73.892c18.316,5.447,46.274,13.77,53.276,15.881L116.874,167.359z M47.148,186.057l-28.312-44.751l91.329,32.879
			L47.148,186.057z M114.825,177.55l-43.88,117.185L48.627,190.022L114.825,177.55z M117.565,182.121l41.354,185.605l-86.033-66.283
			L117.565,182.121z M304.144,385.77l-89.337,31.992l-46.704-42.335L304.144,385.77z M308.59,388.606l-63.131,74.64l-27.917-42.034
			L308.59,388.606z M363.697,335.173l-24.626,42.454l-19.064,3.573L363.697,335.173z M374.572,318.62l-84.896-101.932
			l150.975,66.721L374.572,318.62z M297.254,215.478l169.26,12.396l-22.195,52.595L297.254,215.478z M405.757,72.78l6.416-7.485
			l39.208,39.208L405.757,72.78z M283.32,205.597l-35.505-79.171l71.973-58.537L283.32,205.597z M134.081,87.893
			c5.506-2.977,16.296-9.422,38.001-23.075l64.164,55.915L134.081,87.893z M68.589,74.427l45.459,96.723l-96.724-34.82
			L68.589,74.427z M16.455,232.102l28.614-38.768l21.657,101.604L16.455,232.102z M471.477,221.82v-78.098l12.177,70.013
			L471.477,221.82z"/>
	</g>
</g>
</svg>
